<svg width="429" height="588" viewBox="0 0 429 588" fill="none" xmlns="http://www.w3.org/2000/svg">
<path d="M214.838 0.519562C96.7231 0.519562 0.961639 96.2656 0.961639 214.396C0.961639 237.475 4.73093 259.643 11.4662 280.42C26.6206 333.885 214.838 587.623 214.838 587.623C214.838 587.623 386.943 372.567 414.996 289.256C423.724 265.914 428.76 240.75 428.76 214.365C428.729 96.2811 332.968 0.519562 214.838 0.519562ZM214.838 383.025C122.15 383.025 46.9964 307.84 46.9964 215.183C46.9964 122.45 122.15 47.2958 214.838 47.2958C307.571 47.2958 382.694 122.45 382.694 215.183C382.694 307.84 307.571 383.025 214.838 383.025Z" fill="#C43A3A"/>
<path d="M286.192 98.2429H143.499C128.855 98.2429 116.929 111.142 116.929 127.069V282.15C116.929 292.732 122.197 301.923 130.029 306.928V323.504C130.029 328.957 138.788 333.329 149.663 333.329C160.492 333.329 169.297 328.957 169.297 323.504V310.96H193.334V310.945H243.03V310.96H261.49V323.504C261.49 328.957 270.265 333.329 281.125 333.329C291.985 333.329 300.759 328.957 300.759 323.504V306.264C308.035 301.105 312.808 292.253 312.808 282.135V127.053C312.777 111.157 300.867 98.2429 286.192 98.2429ZM173.561 110.524H256.114V118.541H173.561V110.524ZM190.106 264.076H138V244.797H190.106V264.076ZM242.999 308.566H193.303V293.273H242.999V308.566ZM294.317 264.076H242.196V244.797H294.317V264.076ZM296.603 197.835C296.603 199.797 293.143 201.388 288.879 201.388H140.811C136.563 201.388 133.103 199.782 133.103 197.835V129.34C133.103 127.362 136.563 125.756 140.811 125.756H288.879C293.143 125.756 296.603 127.362 296.603 129.34V197.835Z" fill="#C43A3A"/>
</svg>
