<svg width="429" height="588" viewBox="0 0 429 588" fill="none" xmlns="http://www.w3.org/2000/svg">
<path d="M214.669 0.381958C96.5541 0.381958 0.792603 96.128 0.792603 214.258C0.792603 237.337 4.56189 259.505 11.2972 280.282C26.4516 333.747 214.669 587.485 214.669 587.485C214.669 587.485 386.774 372.429 414.827 289.119C423.555 265.777 428.591 240.612 428.591 214.227C428.56 96.1434 332.799 0.381958 214.669 0.381958ZM214.669 382.887C121.981 382.887 46.8273 307.702 46.8273 215.046C46.8273 122.312 121.981 47.1582 214.669 47.1582C307.402 47.1582 382.525 122.312 382.525 215.046C382.525 307.702 307.402 382.887 214.669 382.887Z" fill="#22566A"/>
<path d="M214.692 268.811C213.09 268.811 211.517 268.392 210.126 267.597L129.594 221.57C128.894 221.166 128.1 220.953 127.292 220.954C126.484 220.954 125.691 221.167 124.991 221.572C124.292 221.976 123.711 222.558 123.308 223.258C122.905 223.958 122.693 224.752 122.694 225.56V268.811C122.693 270.453 123.131 272.065 123.963 273.481C124.795 274.896 125.991 276.063 127.426 276.86L210.224 322.859C211.591 323.619 213.128 324.017 214.692 324.017C216.255 324.017 217.793 323.619 219.16 322.859L301.957 276.86C303.393 276.063 304.589 274.896 305.421 273.481C306.253 272.065 306.691 270.453 306.69 268.811V225.56C306.691 224.752 306.479 223.958 306.076 223.258C305.673 222.558 305.092 221.976 304.393 221.572C303.693 221.167 302.899 220.954 302.091 220.954C301.283 220.953 300.49 221.166 299.79 221.57L219.257 267.597C217.867 268.392 216.293 268.811 214.692 268.811Z" fill="#22566A"/>
<path d="M352.642 166.751C352.642 166.751 352.642 166.705 352.642 166.687C352.494 165.229 351.999 163.828 351.199 162.599C350.398 161.371 349.316 160.352 348.043 159.627L219.246 86.0283C217.855 85.2336 216.282 84.8156 214.68 84.8156C213.079 84.8156 211.505 85.2336 210.115 86.0283L81.3181 159.627C79.9104 160.431 78.7405 161.594 77.9268 162.996C77.1131 164.399 76.6846 165.992 76.6846 167.613C76.6846 169.235 77.1131 170.827 77.9268 172.23C78.7405 173.632 79.9104 174.795 81.3181 175.6L210.115 249.198C211.505 249.993 213.079 250.411 214.68 250.411C216.282 250.411 217.855 249.993 219.246 249.198L332.564 184.449C332.739 184.348 332.938 184.294 333.14 184.295C333.342 184.295 333.541 184.348 333.716 184.45C333.891 184.551 334.036 184.697 334.137 184.873C334.237 185.048 334.29 185.247 334.289 185.449V268.552C334.289 273.503 338.095 277.752 343.046 277.999C344.29 278.059 345.533 277.866 346.7 277.431C347.867 276.996 348.934 276.329 349.835 275.47C350.737 274.611 351.454 273.578 351.945 272.433C352.435 271.288 352.688 270.056 352.688 268.811V167.613C352.688 167.325 352.672 167.037 352.642 166.751Z" fill="#22566A"/>
</svg>
