<svg width="652" height="680" viewBox="0 0 652 680" fill="none" xmlns="http://www.w3.org/2000/svg">
<circle cx="338.647" cy="365.693" r="269.459" fill="#292727" stroke="#35DDC1" stroke-width="15"/>
<path d="M332.5 461.781C329.807 461.781 327.161 461.078 324.824 459.741L189.414 382.349C188.237 381.67 186.903 381.312 185.544 381.313C184.185 381.313 182.851 381.672 181.675 382.352C180.499 383.032 179.522 384.01 178.844 385.188C178.166 386.365 177.811 387.7 177.813 389.059V461.781C177.81 464.542 178.547 467.253 179.946 469.633C181.345 472.013 183.356 473.976 185.769 475.316L324.988 552.66C327.286 553.937 329.871 554.607 332.5 554.607C335.129 554.607 337.714 553.937 340.012 552.66L479.231 475.316C481.644 473.976 483.655 472.013 485.054 469.633C486.453 467.253 487.19 464.542 487.188 461.781V389.059C487.19 387.7 486.834 386.365 486.156 385.188C485.478 384.01 484.501 383.032 483.325 382.352C482.149 381.672 480.815 381.313 479.456 381.313C478.097 381.312 476.763 381.67 475.586 382.349L340.176 459.741C337.839 461.078 335.193 461.781 332.5 461.781Z" fill="#35DDC1"/>
<path d="M564.454 290.175C564.454 290.175 564.454 290.097 564.454 290.068C564.204 287.617 563.371 285.26 562.026 283.195C560.681 281.13 558.861 279.416 556.72 278.196L340.157 154.446C337.819 153.11 335.173 152.407 332.481 152.407C329.788 152.407 327.142 153.11 324.804 154.446L108.242 278.196C105.875 279.549 103.908 281.504 102.54 283.862C101.171 286.221 100.451 288.899 100.451 291.625C100.451 294.351 101.171 297.029 102.54 299.388C103.908 301.746 105.875 303.701 108.242 305.054L324.804 428.804C327.142 430.14 329.788 430.843 332.481 430.843C335.173 430.843 337.819 430.14 340.157 428.804L530.693 319.933C530.988 319.763 531.322 319.673 531.662 319.674C532.002 319.674 532.336 319.764 532.63 319.935C532.924 320.105 533.168 320.351 533.338 320.646C533.507 320.941 533.595 321.275 533.594 321.615V461.346C533.594 469.67 539.994 476.815 548.318 477.231C550.41 477.331 552.5 477.007 554.462 476.276C556.424 475.545 558.218 474.423 559.734 472.979C561.25 471.534 562.456 469.797 563.281 467.872C564.106 465.947 564.531 463.875 564.531 461.781V291.625C564.53 291.141 564.504 290.657 564.454 290.175Z" fill="#35DDC1"/>
</svg>
